<?xml version="1.0" standalone="no"?>
<!DOCTYPE svg PUBLIC "-//W3C//DTD SVG 20010904//EN"
 "http://www.w3.org/TR/2001/REC-SVG-20010904/DTD/svg10.dtd">
<svg version="1.0" xmlns="http://www.w3.org/2000/svg"
 width="512.000000pt" height="512.000000pt" viewBox="0 0 512.000000 512.000000"
 preserveAspectRatio="xMidYMid meet">
<metadata>
Created by potrace 1.14, written by Peter Selinger 2001-2017
</metadata>
<g transform="translate(0.000000,512.000000) scale(0.100000,-0.100000)"
fill="#000000" stroke="none">
<path d="M0 3605 l0 -1515 729 0 729 0 337 585 338 585 881 0 c834 0 883 -1
915 -18 46 -25 73 -76 68 -127 -5 -50 -205 -401 -259 -457 -44 -45 -120 -85
-178 -94 l-42 -7 30 -23 c37 -30 56 -75 49 -119 -7 -45 -218 -410 -265 -458
-20 -21 -62 -50 -92 -65 l-55 -27 -1592 -3 -1593 -2 0 -930 0 -930 2560 0
2560 0 0 2560 0 2560 -2560 0 -2560 0 0 -1515z"/>
<path d="M2722 2855 l-101 -175 237 0 c215 0 240 2 267 19 20 12 54 61 99 140
74 131 79 163 30 181 -14 6 -117 10 -228 10 l-204 0 -100 -175z"/>
<path d="M2383 2268 l-100 -173 226 -3 c236 -3 262 1 299 41 37 40 142 231
142 259 0 17 -7 31 -19 38 -12 6 -105 10 -234 10 l-214 0 -100 -172z"/>
</g>
</svg>
